<svg xmlns="http://www.w3.org/2000/svg" version="1.1" xmlns:xlink="http://www.w3.org/1999/xlink" width="64" height="64" x="0" y="0" viewBox="0 0 35.433 35.433" style="enable-background:new 0 0 512 512" xml:space="preserve" class=""><g><g fill-rule="evenodd" clip-rule="evenodd"><path d="M8.61 10.894a0.525 0.525 0 0 1 0.314 -0.104l13.838 -0.002c0.096 0 0.186 0.025 0.263 0.07l4.578 2.211c0.393 0.189 0.394 0.743 0.018 0.941l-5.155 2.935a0.521 0.521 0 0 1 -0.295 0.067l-12.934 -0.159a0.525 0.525 0 0 1 -0.191 -0.038l-4.708 -1.751a0.526 0.526 0 0 1 -0.31 -0.676 0.521 0.521 0 0 1 0.18 -0.239zm0.485 0.952 -3.479 2.571 3.724 1.385 12.728 0.156 4.174 -2.375 -3.598 -1.737H9.095z" fill="#000000" opacity="1" data-original="#000000" class=""/><path d="m9.435 27.892 2.999 0.022 -0.566 -11.028 -2.631 -0.033a0.525 0.525 0 0 1 -0.191 -0.038l-3.295 -1.225 1.718 2.851c0.036 0.059 0.058 0.122 0.069 0.187zm3.553 1.079 -3.961 -0.03a0.527 0.527 0 0 1 -0.538 -0.421l-1.969 -9.611 -2.45 -4.066c-0.086 -0.158 -0.056 -0.414 -0.041 -0.456a0.526 0.526 0 0 1 0.676 -0.31l4.636 1.724 3.008 0.037a0.527 0.527 0 0 1 0.546 0.5l0.62 12.079c0 0.306 -0.214 0.554 -0.528 0.553" fill="#000000" opacity="1" data-original="#000000" class=""/><path d="m4.031 25.771 -0.632 -5.449a0.525 0.525 0 0 1 0.003 -0.137l0.599 -5.668a0.528 0.528 0 0 1 0.578 -0.471 0.525 0.525 0 0 1 0.398 0.254l2.491 4.142c0.031 0.052 0.052 0.108 0.064 0.165l1.988 9.702a0.527 0.527 0 0 1 -0.411 0.622 0.525 0.525 0 0 1 -0.406 -0.083l-4.421 -2.687c-0.048 -0.029 -0.21 -0.163 -0.252 -0.39m0.423 -5.515 0.596 5.14 3.196 1.942 -1.728 -8.432 -1.634 -2.717zm23.442 -6.785 1.167 7.078 2.368 2.749c0.07 0.082 0.112 0.178 0.124 0.278l0.477 3.738a0.527 0.527 0 0 1 -0.456 0.589l-0.023 0.002v0.002l-12.253 1.045q-0.043 0.004 -0.086 0l-6.226 0.019a0.527 0.527 0 0 1 -0.525 -0.499l-0.621 -12.079c-0.014 -0.29 0.209 -0.539 0.499 -0.553l9.725 0.118 5.047 -2.872a0.527 0.527 0 0 1 0.782 0.386m0.152 7.394 -1.07 -6.49 -4.512 2.568 -0.001 -0.001a0.525 0.525 0 0 1 -0.266 0.069l-9.275 -0.113 0.566 11.018 5.724 -0.018 11.704 -0.998 -0.388 -3.035 -2.349 -2.728a0.525 0.525 0 0 1 -0.134 -0.273" fill="#000000" opacity="1" data-original="#000000" class=""/><path d="m24.426 20.254 4.142 0.001c0.159 0 0.302 0.071 0.398 0.183l2.466 2.862a0.529 0.529 0 0 1 -0.056 0.745 0.53 0.53 0 0 1 -0.401 0.125l-3.669 -0.119a0.527 0.527 0 0 1 -0.357 -0.155l-2.886 -2.732c-0.442 -0.419 -0.033 -0.866 0.361 -0.908m3.898 1.053 -2.578 -0.001 1.793 1.697 2.31 0.075z" fill="#000000" opacity="1" data-original="#000000" class=""/><path d="m24.768 21.828 -1.049 5.688 7.2 -0.614 -0.351 -2.747 -3.26 -0.106a0.527 0.527 0 0 1 -0.357 -0.155zm-2.211 6.178 1.351 -7.321c0.024 -0.12 0.117 -0.246 0.136 -0.267a0.527 0.527 0 0 1 0.743 -0.021l2.752 2.605 3.493 0.114c0.255 0.014 0.517 0.228 0.529 0.505l0.466 3.656c0.046 0.316 -0.145 0.603 -0.474 0.63l-8.435 0.72c-0.314 0.027 -0.638 -0.199 -0.561 -0.621" fill="#000000" opacity="1" data-original="#000000" class=""/><path d="m21.119 16.999 1.905 8.475 0.869 -4.707 -0.572 -4.309 -0.855 0.486a0.525 0.525 0 0 1 -0.295 0.067zm1.442 11.217 -2.616 -11.636s-0.013 -0.11 -0.013 -0.122a0.527 0.527 0 0 1 0.532 -0.52l1.603 0.019 1.404 -0.799a0.527 0.527 0 0 1 0.79 0.386l0.685 5.167s-0.002 0.148 -0.004 0.163l-1.351 7.321a0.527 0.527 0 0 1 -1.032 0.021M12.069 9.429l-0.225 1.359h0.602zM10.703 11.232l0.715 -4.328a0.527 0.527 0 0 1 1.027 -0.056l1.188 4.282c0.022 0.058 0.034 0.121 0.034 0.187a0.529 0.529 0 0 1 -0.529 0.529l-1.916 -0.002c-0.323 0 -0.572 -0.29 -0.52 -0.612" fill="#000000" opacity="1" data-original="#000000" class=""/><path d="M10 10.788c-0.327 -0.62 -0.727 -1.197 -1.195 -1.703l-0.17 -0.177a11.338 11.338 0 0 1 0.698 1.88zm-0.423 -2.417c0.728 0.788 1.308 1.716 1.724 2.705a0.528 0.528 0 0 1 -0.471 0.769H8.924c0 -0.001 -0.479 -0.262 -0.514 -0.409 -0.176 -0.744 -0.421 -1.439 -0.74 -2.104 -0.318 -0.665 -0.713 -1.306 -1.19 -1.944 -0.121 -0.161 -0.154 -0.358 -0.07 -0.545 0.118 -0.265 0.43 -0.384 0.695 -0.266 0.949 0.424 1.778 1.045 2.471 1.794" fill="#000000" opacity="1" data-original="#000000" class=""/></g></g></svg>