<svg xmlns="http://www.w3.org/2000/svg" version="1.1" xmlns:xlink="http://www.w3.org/1999/xlink" width="64" height="64" x="0" y="0" viewBox="0 0 64 64" style="enable-background:new 0 0 512 512" xml:space="preserve" class=""><g><path d="M7.51 38.635a1.255 1.255 0 0 0 -0.884 -0.366 1.255 1.255 0 0 0 -0.884 0.366c-0.233 0.233 -0.366 0.555 -0.366 0.884s0.134 0.651 0.366 0.884a1.26 1.26 0 0 0 0.884 0.366c0.329 0 0.651 -0.134 0.884 -0.366a1.26 1.26 0 0 0 0.366 -0.884c0 -0.33 -0.134 -0.651 -0.366 -0.884" fill="#000000" opacity="1" data-original="#000000"/><path d="M63.957 42.882c-0.179 -0.667 -0.864 -1.063 -1.531 -0.884l-8.453 2.265 -5.306 -19.804 8.453 -2.265c0.667 -0.179 1.063 -0.864 0.884 -1.531s-0.865 -1.063 -1.531 -0.884L46.813 22.367c-0.404 0.108 -0.707 0.402 -0.845 0.765l-2.412 -1.354a5.947 5.947 0 0 0 -4.795 -0.452l-2.342 0.786c-1.565 0.525 -2.936 1.512 -3.933 2.815l-3.332 -2.023c-1.395 -0.847 -3.076 -1.019 -4.613 -0.473l-6.715 2.386 0.246 -0.919c0.179 -0.667 -0.217 -1.352 -0.884 -1.531l-9.66 -2.588a1.25 1.25 0 0 0 -1.531 0.884c-0.179 0.667 0.217 1.352 0.884 1.531l8.453 2.265 -0.541 2.02 -0.001 0.004 -4.764 17.779 -8.453 -2.265c-0.667 -0.179 -1.352 0.217 -1.531 0.884 -0.179 0.667 0.217 1.352 0.884 1.531l9.66 2.588c0.108 0.029 0.217 0.043 0.324 0.043 0.392 0 0.76 -0.187 0.995 -0.495l4.475 1.221c-0.173 1.446 0.509 2.926 1.848 3.699a3.725 3.725 0 0 0 1.869 0.502c0.261 0 0.519 -0.029 0.773 -0.082 0.287 0.88 0.881 1.614 1.688 2.08 0.578 0.334 1.219 0.504 1.869 0.504 0.258 0 0.518 -0.028 0.776 -0.083 0.278 0.847 0.855 1.599 1.686 2.079a3.725 3.725 0 0 0 1.869 0.502c0.261 0 0.521 -0.029 0.775 -0.082 0.277 0.848 0.855 1.601 1.687 2.081a3.725 3.725 0 0 0 1.869 0.502c1.05 0 2.077 -0.441 2.799 -1.246l0.132 0.076a3.725 3.725 0 0 0 1.859 0.497c1.296 0 2.56 -0.672 3.252 -1.872l0.009 -0.016c0.478 -0.829 0.603 -1.767 0.42 -2.639 0.879 -0.287 1.611 -0.879 2.077 -1.687 0.466 -0.807 0.613 -1.737 0.422 -2.642a3.75 3.75 0 0 0 0.61 -0.264l7.543 -2.995a1.251 1.251 0 0 0 0.875 0.36 1.25 1.25 0 0 0 0.324 -0.043l9.66 -2.588c0.667 -0.178 1.063 -0.864 0.884 -1.531m-41.27 3.366 -1.5 2.598c-0.345 0.597 -1.111 0.802 -1.708 0.458 -0.597 -0.345 -0.802 -1.111 -0.458 -1.708l1.5 -2.598a1.251 1.251 0 0 1 1.708 -0.458 1.242 1.242 0 0 1 0.583 0.759 1.244 1.244 0 0 1 -0.125 0.949m4.331 2.5L25.517 51.346a1.241 1.241 0 0 1 -0.759 0.582 1.242 1.242 0 0 1 -0.949 -0.125 1.241 1.241 0 0 1 -0.582 -0.759 1.242 1.242 0 0 1 0.125 -0.949l1.5 -2.598a1.251 1.251 0 0 1 1.708 -0.458 1.241 1.241 0 0 1 0.582 0.759 1.242 1.242 0 0 1 -0.125 0.949m4.33 2.5 -1.5 2.598c-0.344 0.597 -1.111 0.802 -1.708 0.458 -0.597 -0.345 -0.802 -1.111 -0.458 -1.708l1.5 -2.598a1.241 1.241 0 0 1 0.759 -0.582 1.242 1.242 0 0 1 0.949 0.125 1.241 1.241 0 0 1 0.582 0.759 1.241 1.241 0 0 1 -0.125 0.949m4.331 2.5 -1.5 2.598c-0.345 0.597 -1.111 0.802 -1.708 0.458s-0.802 -1.111 -0.458 -1.708l1.5 -2.598a1.251 1.251 0 0 1 1.707 -0.458l0.001 0.001c0.596 0.345 0.801 1.111 0.457 1.707m3.298 1.911 -0.009 0.016c-0.343 0.594 -1.106 0.8 -1.701 0.458l-0.058 -0.033 0.636 -1.101a3.75 3.75 0 0 0 0.439 -1.18l0.228 0.133 0.001 0 0.01 0.006c0.593 0.344 0.797 1.108 0.454 1.701m7.658 -9.45a3.75 3.75 0 0 0 -0.076 -0.596 3.743 3.743 0 0 0 2.08 -1.689c1.033 -1.789 0.418 -4.086 -1.372 -5.119l-5.136 -2.966c-0.598 -0.345 -1.363 -0.14 -1.708 0.458 -0.345 0.598 -0.14 1.362 0.458 1.708l5.136 2.966c0.596 0.344 0.8 1.108 0.453 1.709 -0.344 0.596 -1.108 0.8 -1.704 0.457l-5.136 -2.966a1.25 1.25 0 0 0 -1.708 0.458c-0.345 0.598 -0.14 1.362 0.458 1.708l5.136 2.966c0.288 0.167 0.495 0.435 0.581 0.757s0.042 0.658 -0.128 0.952a1.238 1.238 0 0 1 -0.387 0.411l-0.002 0.001c-0.084 0.033 -0.161 0.075 -0.233 0.123 -0.342 0.135 -0.739 0.119 -1.081 -0.078l-5.136 -2.966c-0.598 -0.345 -1.363 -0.14 -1.708 0.458 -0.345 0.598 -0.14 1.362 0.458 1.708l5.136 2.966c0.596 0.344 0.8 1.108 0.457 1.704a1.238 1.238 0 0 1 -0.759 0.582 1.24 1.24 0 0 1 -0.946 -0.126l-3.295 -1.913 -0.001 -0.001 -0.002 -0.001c-0.831 -0.479 -1.77 -0.604 -2.642 -0.421 -0.287 -0.88 -0.881 -1.613 -1.688 -2.079 -0.807 -0.466 -1.738 -0.613 -2.643 -0.423 -0.287 -0.879 -0.88 -1.612 -1.688 -2.078 -0.831 -0.479 -1.77 -0.604 -2.642 -0.421 -0.287 -0.88 -0.88 -1.613 -1.688 -2.079h0c-1.791 -1.034 -4.089 -0.418 -5.123 1.373l-0.982 1.702 -4.731 -1.29 4.396 -16.408 8.338 -2.963a2.891 2.891 0 0 1 2.478 0.254l3.277 1.99 -2.535 4.088c-1.004 1.62 -0.759 3.687 0.596 5.026 0.788 0.779 1.821 1.168 2.854 1.168 1.037 0 2.075 -0.392 2.863 -1.177l6.308 -6.274c0.489 -0.487 0.491 -1.278 0.005 -1.768 -0.487 -0.49 -1.279 -0.491 -1.768 -0.005l-6.308 6.274c-0.605 0.602 -1.59 0.603 -2.196 0.003a1.552 1.552 0 0 1 -0.229 -1.931l3.429 -5.53a5.769 5.769 0 0 1 3.062 -2.424l2.342 -0.786a3.442 3.442 0 0 1 2.776 0.262l4.253 2.388 4.815 17.971z" fill="#000000" opacity="1" data-original="#000000"/><path d="M58.258 38.635c-0.233 -0.232 -0.555 -0.366 -0.884 -0.366s-0.651 0.134 -0.884 0.366c-0.233 0.233 -0.366 0.555 -0.366 0.884s0.134 0.651 0.366 0.884c0.232 0.232 0.555 0.366 0.884 0.366s0.651 -0.134 0.884 -0.366 0.366 -0.555 0.366 -0.884 -0.134 -0.651 -0.366 -0.884M32.004 8.967c-0.69 0 -1.25 0.56 -1.25 1.25v5.959c0 0.69 0.56 1.25 1.25 1.25s1.25 -0.56 1.25 -1.25V10.217c0 -0.69 -0.56 -1.25 -1.25 -1.25m0.884 -4.072a1.259 1.259 0 0 0 -0.884 -0.366c-0.329 0 -0.651 0.134 -0.884 0.366s-0.366 0.555 -0.366 0.884a1.259 1.259 0 0 0 0.366 0.884 1.26 1.26 0 0 0 0.884 0.366c0.329 0 0.651 -0.134 0.884 -0.366a1.259 1.259 0 0 0 0.366 -0.884c0 -0.329 -0.134 -0.651 -0.366 -0.884m-9.63 10.656L21.077 11.775a1.25 1.25 0 0 0 -1.708 -0.458c-0.598 0.345 -0.803 1.11 -0.458 1.708l2.18 3.776a1.25 1.25 0 0 0 1.708 0.458c0.598 -0.345 0.803 -1.11 0.457 -1.708M44.638 11.318c-0.598 -0.345 -1.363 -0.14 -1.708 0.458l-2.18 3.776c-0.345 0.598 -0.141 1.363 0.458 1.708a1.25 1.25 0 0 0 1.708 -0.458l2.18 -3.776c0.345 -0.598 0.14 -1.363 -0.458 -1.708" fill="#000000" opacity="1" data-original="#000000"/></g></svg>