<svg xmlns="http://www.w3.org/2000/svg" version="1.1" xmlns:xlink="http://www.w3.org/1999/xlink" width="64" height="64" x="0" y="0" viewBox="0 0 60 59.875" style="enable-background:new 0 0 512 512" xml:space="preserve" class=""><g><path d="M59 58.041v-10h-2v2h-2v-2h-2v1h-2.66L49 36.982v-2.94h-2v2h-2v-3l-0.736 -3.033 5.736 -1.147v-3.54l-6 -2v-2.558l3 -1v-3.442l-6.599 -2.199a8.943 8.943 0 0 1 -4.478 -3.308L33 6.721V5.278l0.118 -0.235c0.708 -1.458 0.312 -3.211 -0.954 -4.222s-3.063 -1.011 -4.328 0.001c-1.266 1.012 -1.661 2.765 -0.953 4.222l0.117 0.234V6.721l-2.924 4.093a8.943 8.943 0 0 1 -4.478 3.308L13 16.321v3.442l3 1v2.558l-6 2v3.54l5.729 1.146 -0.698 2.792 -0.023 3.242H13v-2H11v2.94l-1.34 12.06H7v-1H5v2H3v-2H1v10H0v2h60v-2zm-2 -6v2h-2v-2zm-4 -1v3h-2.104l-0.334 -3zm-5.673 -11H40v-2h7.104zm-7.327 2h7.549l1.334 12H40zm-22.218 -12.008 1.454 0.008L21 29.16l1.764 0.882h14.473l1.764 -0.882 1.764 0.882h1.456l0.499 2H17.281zM18 21.041h3.236l1.764 -0.882 1.764 0.882h10.473l1.764 -0.882 1.764 0.882H42v2H18zm11 -10.325V8.041h2V10.716a9.955 9.955 0 0 0 3.753 7.809l0.401 0.321 -0.391 0.195h-9.527l-0.391 -0.195 0.401 -0.321A9.955 9.955 0 0 0 29 10.716m5.586 14.325 2.726 2.726 -0.548 0.274H23.236l-0.548 -0.274 2.726 -2.726zM48 26.762v0.46l-4.099 0.819h-2.665l-1.645 -0.822 -2.178 -2.178h5.424zm-8.232 -10.744L45 17.762v0.558l-2.162 0.721h-3.602l-1.693 -0.847 -1.541 -1.232A7.961 7.961 0 0 1 33 10.716v-0.556l1.297 1.815a10.919 10.919 0 0 0 5.472 4.042m-11.098 -11.87a1.444 1.444 0 0 1 0.33 -1.693 1.425 1.425 0 0 1 1.046 -0.41 1.425 1.425 0 0 1 1.018 0.475 1.411 1.411 0 0 1 0.266 1.627L31 4.805v1.236h-2v-1.236zM15 17.762l5.231 -1.744a10.919 10.919 0 0 0 5.472 -4.042L27 10.161v0.556a7.961 7.961 0 0 1 -3.003 6.246l-1.541 1.232 -1.693 0.847h-3.602L15 18.321zm-3 9 5.162 -1.721h5.424l-2.178 2.178 -1.645 0.822h-2.665L12 27.222zm5 7.279h26v2h-5v18h-2v-10c0 -3.314 -2.687 -6 -6 -6s-6 2.686 -6 6v10h-2v-18h-5zm17 20h-8v-10c0 -2.209 1.791 -4 4 -4s4 1.79 4 4zm-14 -14h-7.327l0.222 -2H20zm0 2v12H11.118l1.333 -12zm-10.562 9 -0.334 3H7v-3zm-4.438 1v2H3v-2zm-2 4h54v2H3zm0 0" fill="#000000" opacity="1" data-original="#000000"/></g></svg>